
<svg width="32" height="33" viewBox="0 0 32 33" fill="none" xmlns="http://www.w3.org/2000/svg">
<path d="M16.3267 13.3579V19.6808H25.1134C24.7275 21.7142 23.5697 23.436 21.8331 24.5937L27.1319 28.7051C30.2191 25.8554 32.0002 21.6698 32.0002 16.6976C32.0002 15.5399 31.8963 14.4266 31.7033 13.3581L16.3267 13.3579Z" fill="#4285F4"/>
<path d="M7.1767 19.4346L5.98164 20.3494L1.75146 23.6444C4.43794 28.9727 9.94409 32.6537 16.3263 32.6537C20.7344 32.6537 24.4301 31.1992 27.1315 28.7057L21.8328 24.5943C20.3782 25.5739 18.5229 26.1677 16.3263 26.1677C12.0814 26.1677 8.47476 23.3031 7.18338 19.444L7.1767 19.4346Z" fill="#34A853"/>
<path d="M1.75128 9.00928C0.638159 11.2059 0 13.6846 0 16.3265C0 18.9684 0.638159 21.4472 1.75128 23.6438C1.75128 23.6585 7.18372 19.4285 7.18372 19.4285C6.85719 18.4489 6.66418 17.41 6.66418 16.3263C6.66418 15.2427 6.85719 14.2038 7.18372 13.2242L1.75128 9.00928Z" fill="#FBBC05"/>
<path d="M16.3266 6.50099C18.7311 6.50099 20.8684 7.33215 22.5753 8.93516L27.2506 4.25984C24.4157 1.61793 20.7349 0 16.3266 0C9.94442 0 4.43794 3.66608 1.75146 9.00938L7.18373 13.2246C8.47495 9.36557 12.0817 6.50099 16.3266 6.50099Z" fill="#EA4335"/>
</svg>
